<?xml version="1.0" encoding="utf-8"?>
<!-- Generator: Adobe Illustrator 27.5.0, SVG Export Plug-In . SVG Version: 6.00 Build 0)  -->
<svg version="1.1" id="Capa_1" xmlns="http://www.w3.org/2000/svg" xmlns:xlink="http://www.w3.org/1999/xlink" x="0px" y="0px"
	 viewBox="0 0 1898 2372" style="enable-background:new 0 0 1898 2372;" xml:space="preserve">
<path style="fill:#050605;" d="M1497.055,128.493c-13.557-6.785-36.87-13.308-58.691-12.748c-8.743-0.314-17.136,0.697-24.961,3.007
	c-21.46,6.337-38.37,22.517-47.616,45.563l-0.142,0.365c-0.333,0.879-33.624,88.749-78.009,203.286
	c-3.042,4.803-5.61,9.911-7.651,15.215c-1.967,5.111-3.449,10.417-4.416,15.806l-5.574,14.286
	c-2.969,4.765-5.495,9.811-7.524,15.033c-1.984,5.1-3.505,10.4-4.534,15.783l-5.804,14.875c-2.69,4.777-5.056,9.772-7.043,14.87
	c-1.892,4.858-3.469,9.88-4.694,14.952l-3.968,10.168l-1.995,5.114c-2.785,4.841-5.217,9.916-7.24,15.109
	c-1.871,4.807-3.417,9.779-4.604,14.807c-7.05,17.884-14.272,36.044-21.477,54.004c-20.878,48-41.587,96.855-61.551,145.206
	c-15.988,38.723-31.894,78.077-47.279,116.975c-5.414,11.976-9.389,20.638-12.867,28.038c-0.037,0.08-4.066,8.457-13.246,11.167
	c-3.222,0.952-6.894,1.132-10.911,0.537l-0.749-0.097l-0.35-0.064c-20.118-3.485-39.497-2.744-56.046,2.142
	c-22.432,6.623-39.386,20.628-49.429,40.476c-10.043-19.848-26.997-33.852-49.429-40.476c-16.549-4.886-35.927-5.627-56.046-2.142
	l-0.35,0.064l-0.749,0.097c-4.018,0.596-7.689,0.415-10.911-0.537c-9.18-2.71-13.209-11.087-13.247-11.167
	c-3.477-7.401-7.451-16.062-12.865-28.038c-15.386-38.898-31.292-78.252-47.28-116.975c-19.964-48.351-40.673-97.206-61.551-145.206
	c-7.205-17.96-14.426-36.12-21.477-54.004c-1.188-5.028-2.733-10-4.605-14.807c-2.023-5.193-4.454-10.268-7.239-15.109l-1.996-5.114
	l-3.968-10.168c-1.225-5.072-2.801-10.094-4.693-14.952c-1.987-5.098-4.352-10.093-7.043-14.87l-5.804-14.875
	c-1.029-5.383-2.551-10.682-4.534-15.783c-2.029-5.222-4.556-10.268-7.524-15.033l-5.574-14.286
	c-0.967-5.388-2.449-10.694-4.416-15.806c-2.041-5.304-4.61-10.412-7.651-15.215c-44.385-114.537-77.676-202.407-78.009-203.286
	l-0.143-0.365c-9.245-23.046-26.155-39.226-47.616-45.563c-7.825-2.31-16.218-3.321-24.961-3.007
	c-21.821-0.561-45.133,5.962-58.691,12.748c-40.044,20.044-57.329,60.789-42.147,99.196c2.221,6.215,34.093,95.388,75.505,209.99
	c1.111,4.964,2.59,9.891,4.398,14.658c0.4,1.055,0.783,2.089,1.157,3.099c1.63,4.401,3.309,8.932,5.643,13.205l5.465,15.091
	c1.609,6.327,6.968,22.19,10.935,30.166l5.587,15.394c1.454,5.642,7.161,22.372,10.981,30.214l5.657,15.542
	c1.527,5.896,7.127,22.305,10.992,30.156c6.521,17.871,13.065,35.772,19.585,53.566c0.137,0.514,0.296,1.025,0.476,1.534
	c8.301,23.423,16.831,46.648,25.862,71.236c9.16,24.938,18.632,50.726,27.887,76.859c15.987,45.146,29.982,82.693,46.275,119.096
	c3.586,9.212,6.97,17.825,10.108,25.704c3.929,9.866,5.761,14.469-3.208,22.797c-2.033,1.579-4.138,3.28-6.404,5.177l-1.313,1.11
	c-46.746,39.757-46.411,76.857-37.853,101.029l134.434,379.73l-243.26,542.125c-11.372,25.34-9.826,54.641,4.066,78.747
	c9.096,22.412,27.147,40.378,49.772,49.455l289.493,116.142c18.784,7.537,39.716,8.561,58.941,2.885
	c26.739-7.895,48.186-28.099,57.371-54.046l21.967-62.048l21.966,62.048c9.186,25.947,30.633,46.152,57.372,54.046
	c19.225,5.676,40.157,4.652,58.941-2.885l289.493-116.142c22.625-9.077,40.676-27.043,49.773-49.455
	c13.892-24.105,15.437-53.406,4.066-78.747l-243.26-542.124l134.434-379.731c8.558-24.172,8.893-61.273-37.853-101.029l-1.313-1.11
	c-2.266-1.897-4.372-3.599-6.405-5.177c-8.97-8.329-7.137-12.931-3.209-22.797c3.139-7.879,6.522-16.492,10.109-25.704
	c16.293-36.403,30.288-73.95,46.275-119.096c9.255-26.133,18.727-51.921,27.887-76.859c9.031-24.588,17.561-47.813,25.862-71.236
	c0.181-0.509,0.339-1.02,0.477-1.534c6.52-17.794,13.064-35.695,19.585-53.566c3.865-7.851,9.465-24.26,10.992-30.156l5.656-15.542
	c3.82-7.842,9.528-24.572,10.981-30.214l5.587-15.394c3.967-7.977,9.325-23.84,10.934-30.166l5.465-15.091
	c2.333-4.273,4.012-8.804,5.643-13.205c0.374-1.01,0.756-2.044,1.157-3.099c1.808-4.767,3.286-9.694,4.397-14.658
	c41.413-114.603,73.284-203.775,75.505-209.99C1554.385,189.281,1537.099,148.537,1497.055,128.493z"/>
<path style="fill:#B07948;" d="M1382.491,544.048c-2.46,5.966-4.863,11.955-7.289,18.002l0,0l19.167,7.69
	c2.222-6.103,4.438-12.191,6.646-18.26L1382.491,544.048L1382.491,544.048z"/>
<path style="fill:#B07948;" d="M1400.57,498.985l-7.231,18.026l0,0l17.633,7.075c2.223-6.121,4.434-12.212,6.63-18.267
	C1411.949,503.55,1406.251,501.264,1400.57,498.985L1400.57,498.985z"/>
<path style="fill:#B07948;" d="M1479.532,147.832c32.657,18.135,43.893,45.423,32.039,74.97c0,0-35.3,87.821-82.075,204.083
	l14.569,5.844c43.55-120.508,76.286-212.157,76.286-212.157c11.943-29.769-2.616-59.2-32.313-74.065
	c-10.471-5.242-30.883-11.24-49.782-10.606c6.621,0.298,13.682,1.524,21.198,3.875
	C1464.634,141.391,1474.821,145.214,1479.532,147.832z"/>
<path style="fill:#B07948;" d="M1225.903,934.85c-4.909,12.401-12.278,31.099,15.891,51.009l-0.026-0.002
	c0.372,0.28,0.765,0.566,1.118,0.84c28.188,21.887,49.851,50.351,37.906,83.981l-119.214,335.643l13.508,30.103l127.389-359.832
	c10.996-31.058-7-57.971-32.546-79.496l0.031,0.003c-0.095-0.068-0.17-0.134-0.264-0.201c-2.215-1.86-4.467-3.693-6.781-5.471
	c-19.831-17.908-13.447-34.372-8.945-45.678c3.189-8.01,6.635-16.78,10.289-26.171l-27.82-11.161
	C1232.643,917.886,1229.152,926.751,1225.903,934.85z"/>
<path style="fill:#B07948;" d="M1411.417,471.948L1411.417,471.948l16.119,6.467c2.224-6.14,4.432-12.238,6.616-18.272
	c-5.146-2.064-10.334-4.147-15.503-6.22L1411.417,471.948z"/>
<path style="fill:#B07948;" d="M1364.356,589.088L1364.356,589.088l-22.359,55.729l21.76,8.73
	c6.866-18.737,13.762-37.6,20.63-56.423C1377.754,594.463,1371.025,591.763,1364.356,589.088L1364.356,589.088z"/>
<path style="fill:#41302C;" d="M1370.953,576.042c-2.08,5.184-4.425,9.54-6.598,13.046c6.669,2.676,13.398,5.375,20.032,8.037
	c0,0,0,0.001,0,0.001c2.173-3.506,9.192-23.324,10.045-27.36l-0.063-0.025l-19.167-7.69
	C1374.35,566.086,1373.033,570.856,1370.953,576.042z"/>
<path style="fill:#41302C;" d="M1389,531.057c-2.057,5.114-4.356,9.451-6.509,12.991l18.525,7.432l0.001,0
	c2.152-3.539,9.129-23.282,10.027-27.366c-0.024-0.01-0.048-0.02-0.072-0.029l-17.633-7.075
	C1392.44,521.096,1391.085,525.876,1389,531.057z"/>
<path style="fill:#41302C;" d="M1407.403,485.922c-2.134,5.34-4.614,9.702-6.833,13.063c5.681,2.279,11.38,4.565,17.033,6.833
	c0,0,0,0.001,0.001,0.001c2.219-3.36,9.284-23.459,9.995-27.379l-0.062-0.025l-16.119-6.467
	C1410.707,475.868,1409.503,480.665,1407.403,485.922z"/>
<path style="fill:#41302C;" d="M1429.496,426.885c-0.808,3.707-1.975,7.912-3.688,12.426c-2.206,5.814-4.766,10.694-7.159,14.611v0
	c5.169,2.073,10.357,4.156,15.503,6.22l0,0c2.394-3.917,4.106-9.137,6.311-14.952c1.713-4.515,2.881-8.719,3.688-12.427
	l-0.087-0.035L1429.496,426.885L1429.496,426.885z"/>
<path style="fill:#41302C;" d="M1341.997,644.817c-16.906,47.709-35.496,96.903-55.961,147.359
	c-16.295,40.174-32.876,78.926-49.594,116.241l0,0l27.82,11.161l0.007,0.003c16.718-37.315,30.856-75.665,45.814-117.905
	c18.176-51.325,36.844-100.39,53.749-148.099l-0.075-0.03L1341.997,644.817L1341.997,644.817z"/>
<path style="fill:#B07948;" d="M888.517,2175.124c-12.645,35.6-52.369,53.531-87.431,39.463l-279.721-112.222
	c-13.954-5.598-24.873-15.405-32.067-27.313c6.61,17.292,20.247,32.053,39.114,39.623l289.493,116.143
	c36.288,14.559,77.098-3.247,89.822-39.189l30.271-85.506l-12.467-35.214L888.517,2175.124z"/>
<path style="fill:#D1976A;" d="M1393.339,517.01l7.231-18.026v0.001c-41.051-16.47-82.101-32.939-123.152-49.408
	c-2.323,5.956-4.692,12.024-7.06,18.094C1311.351,484.118,1352.345,500.564,1393.339,517.01z"/>
<path style="fill:#D1976A;" d="M1411.417,471.948l7.232-18.025v0v0c-41.184-16.523-82.367-33.046-123.551-49.568
	c-2.323,5.955-4.691,12.024-7.06,18.094L1411.417,471.948z"/>
<path style="fill:#D1976A;" d="M1375.203,562.05c2.426-6.047,4.829-12.036,7.289-18.002l-122.811-49.271
	c-2.345,6.012-4.714,12.081-7.06,18.094L1375.203,562.05z"/>
<path style="fill:#D1976A;" d="M1429.496,426.885L1429.496,426.885c46.776-116.262,82.075-204.083,82.075-204.083
	c11.854-29.547,0.618-56.835-32.039-74.97c-4.711-2.618-14.899-6.441-20.078-8.055c-7.516-2.351-14.577-3.577-21.198-3.875
	c-25.67-1.155-44.349,12.424-53.773,35.914c0,0-33.508,88.473-78.824,205.387L1429.496,426.885z"/>
<path style="fill:#D1976A;" d="M1341.997,644.817L1341.997,644.817l22.359-55.729c-40.823-16.378-81.646-32.756-122.467-49.133
	c-7.346,18.641-14.75,37.259-22.187,55.798L1341.997,644.817z"/>
<path style="fill:#58453F;" d="M1364.355,589.088L1364.355,589.088L1364.355,589.088c2.173-3.506,4.518-7.863,6.598-13.046
	c2.08-5.185,3.396-9.955,4.249-13.992l0,0l-122.582-49.179c-2.215,3.711-4.571,8.259-6.657,13.616
	c-1.921,4.931-3.203,9.5-4.076,13.468C1282.71,556.332,1323.533,572.71,1364.355,589.088z"/>
<path style="fill:#58453F;" d="M1382.491,544.048L1382.491,544.048c2.153-3.54,4.452-7.877,6.509-12.991
	c2.084-5.181,3.44-9.962,4.339-14.047l0,0c-40.994-16.446-81.987-32.893-122.981-49.339c-2.168,3.726-4.453,8.226-6.498,13.476
	c-1.939,4.977-3.262,9.595-4.178,13.631L1382.491,544.048z"/>
<path style="fill:#58453F;" d="M1400.57,498.986L1400.57,498.986L1400.57,498.986c2.22-3.361,4.7-7.723,6.833-13.063
	c2.1-5.257,3.304-10.054,4.014-13.974l0,0l-123.38-49.499c-2.206,3.351-4.689,7.745-6.792,13.155
	c-2.052,5.278-3.184,10.081-3.828,13.974C1318.469,466.046,1359.519,482.516,1400.57,498.986z"/>
<path style="fill:#58453F;" d="M1418.649,453.923L1418.649,453.923c2.393-3.917,4.954-8.797,7.159-14.611
	c1.713-4.515,2.88-8.719,3.688-12.426l-123.837-49.682c-2.221,3.301-4.76,7.716-6.875,13.213
	c-2.038,5.296-3.108,10.099-3.687,13.939C1336.282,420.877,1377.465,437.4,1418.649,453.923z"/>
<path style="fill:#58453F;" d="M1236.442,908.417c16.718-37.314,33.299-76.066,49.594-116.241
	c20.465-50.456,39.055-99.651,55.961-147.359l-122.296-49.064c-20.638,47.445-41.162,95.822-61.52,145.129
	c-16.27,39.404-32.046,78.459-47.344,117.144L1236.442,908.417z"/>
<path style="fill:#D1976A;" d="M968.021,974.961c0.761-1.641,1.552-3.35,2.298-4.955c7.362-15.852,14.531-41.378,52.768-46.888
	c14.848-2.139,33.717-0.592,56.633,3.661l0.798-4.236c19.815,4.279,42.95,10.793,67.953,20.805c0.078,0.022,0.153,0.042,0.231,0.063
	l-0.01,0.027c2.544,1.02,5.086,2.037,7.667,3.132c21.638,9.177,40.332,19.24,56.044,28.884l-144.528,222.036l93.707,208.832
	l119.214-335.643c11.944-33.63-9.718-62.094-37.906-83.981c-0.353-0.274-0.746-0.56-1.118-0.84l0.026,0.002
	c-28.169-19.91-20.801-38.609-15.891-51.009c3.249-8.1,6.74-16.965,10.538-26.433l0,0l-125.606-50.392
	c-4.712,10.426-9.105,20.055-13.188,28.747c-3.615,7.689-17.593,27.179-45.344,23.065l0.079,0.062l0.004,0.004
	c-0.012-0.002-0.025-0.004-0.037-0.007c-0.547-0.099-1.111-0.206-1.638-0.298c-35.164-6.092-70.827,1.936-85.437,34.496
	l-5.552,12.374L968.021,974.961z"/>
<path style="fill:#D1976A;" d="M818.101,1767.453l-95.894,239.02l-221.814,4.8c0,0,108.471-242.801,225.774-503.502l-6.097-17.221
	l-234.619,522.866c-9.311,20.751-7.038,43.621,3.846,61.635c7.194,11.908,18.114,21.715,32.067,27.313l279.721,112.222
	c35.062,14.067,74.786-3.863,87.431-39.463l37.014-104.215L818.101,1767.453z"/>
<path style="fill:#B07948;" d="M526.761,2092.637c0,0,234.83,94.212,275.493,110.526c40.663,16.314,69.785-18.031,69.785-18.031
	l-157.762-158.889l-222.439,6.356C489.957,2081.412,526.761,2092.637,526.761,2092.637z"/>
<path style="fill:#E1B18A;" d="M722.207,2006.474l95.894-239.02l-91.934-259.682c-117.303,260.701-225.774,503.502-225.774,503.502
	L722.207,2006.474z"/>
<path style="fill:#E1B18A;" d="M1079.72,926.778c-22.916-4.253-41.785-5.8-56.633-3.661c-38.237,5.51-45.406,31.037-52.768,46.888
	c-0.746,1.605-1.536,3.314-2.298,4.955l72.302,161.13L1079.72,926.778z"/>
<path style="fill:#B07948;" d="M1212.401,975.453c-15.712-9.644-34.406-19.707-56.044-28.884c-2.581-1.095-5.123-2.112-7.667-3.132
	c-0.074-0.029-0.147-0.061-0.22-0.09c-25.003-10.011-48.137-16.526-67.953-20.805l-0.798,4.236l-39.397,209.313l27.55,61.398
	L1212.401,975.453z"/>
<path style="fill:#B07948;" d="M522.163,562.05c-2.426-6.047-4.829-12.036-7.289-18.002l0,0l-18.525,7.432
	c2.208,6.069,4.424,12.157,6.646,18.26L522.163,562.05L522.163,562.05z"/>
<path style="fill:#B07948;" d="M453.3,432.729l14.569-5.844c-46.776-116.262-82.075-204.083-82.075-204.083
	c-11.855-29.547-0.618-56.835,32.039-74.97c4.711-2.618,14.899-6.441,20.078-8.055c7.516-2.351,14.578-3.577,21.199-3.875
	c-18.898-0.634-39.31,5.364-49.782,10.606c-29.698,14.865-44.257,44.296-32.314,74.065
	C377.015,220.573,409.751,312.222,453.3,432.729z"/>
<path style="fill:#B07948;" d="M533.011,589.088L533.011,589.088c-6.669,2.676-13.399,5.375-20.032,8.037
	c6.868,18.823,13.763,37.686,20.63,56.423l21.76-8.73L533.011,589.088z"/>
<path style="fill:#B07948;" d="M504.027,517.01l-7.231-18.025h0l0,0c-5.681,2.279-11.379,4.565-17.032,6.833
	c2.197,6.055,4.407,12.145,6.63,18.267C492.272,521.727,498.149,519.369,504.027,517.01L504.027,517.01z"/>
<path style="fill:#B07948;" d="M485.948,471.948l-7.231-18.025c-5.169,2.074-10.358,4.156-15.503,6.22
	c2.184,6.033,4.392,12.131,6.616,18.272L485.948,471.948L485.948,471.948z"/>
<path style="fill:#41302C;" d="M526.413,576.042c-2.08-5.185-3.396-9.955-4.249-13.992l-19.167,7.69l-0.063,0.025
	c0.853,4.036,7.872,23.854,10.045,27.36c0,0,0-0.001,0.001-0.001c6.634-2.662,13.363-5.361,20.032-8.037
	C530.838,585.582,528.493,581.225,526.413,576.042z"/>
<path style="fill:#41302C;" d="M508.365,531.057c-2.084-5.181-3.439-9.962-4.338-14.047c-5.878,2.358-11.755,4.716-17.634,7.075
	c-0.023,0.009-0.048,0.019-0.071,0.029c0.899,4.085,7.874,23.827,10.027,27.366l0.001,0l18.525-7.432
	C512.722,540.509,510.423,536.171,508.365,531.057z"/>
<path style="fill:#41302C;" d="M489.962,485.922c-2.1-5.257-3.303-10.054-4.014-13.974l-16.118,6.467l-0.062,0.025
	c0.711,3.92,7.776,24.019,9.995,27.379h0c5.653-2.268,11.351-4.554,17.032-6.833C494.576,495.625,492.096,491.262,489.962,485.922z"
	/>
<path style="fill:#41302C;" d="M478.717,453.923L478.717,453.923c-2.394-3.917-4.953-8.797-7.159-14.611
	c-1.712-4.515-2.881-8.719-3.688-12.426l0,0l-14.569,5.844l-0.087,0.035c0.808,3.708,1.975,7.912,3.688,12.427
	c2.206,5.815,3.918,11.034,6.312,14.952l0,0C468.359,458.078,473.548,455.997,478.717,453.923L478.717,453.923z"/>
<path style="fill:#41302C;" d="M660.924,908.417c-16.718-37.314-33.299-76.066-49.594-116.241
	c-20.465-50.456-39.055-99.651-55.961-147.359l0,0l-21.76,8.73l-0.075,0.03c16.906,47.709,35.573,96.774,53.749,148.099
	c14.959,42.239,29.097,80.59,45.815,117.905l0.007-0.003L660.924,908.417L660.924,908.417z"/>
<path style="fill:#B07948;" d="M1376.001,2102.365l-279.721,112.222c-35.063,14.067-74.787-3.863-87.431-39.463L616.572,1070.678
	c-11.945-33.63,9.718-62.094,37.906-83.981c0.352-0.274,0.746-0.56,1.118-0.84l-0.026,0.002
	c28.169-19.91,20.801-38.609,15.891-51.009c-3.25-8.1-6.739-16.965-10.538-26.433l-27.82,11.161
	c3.654,9.39,7.099,18.16,10.289,26.171c4.502,11.306,10.885,27.77-8.945,45.678c-2.314,1.778-4.566,3.61-6.781,5.471
	c-0.094,0.068-0.169,0.134-0.263,0.201l0.031-0.003c-25.546,21.525-43.541,48.438-32.546,79.496l394.75,1115.037
	c12.724,35.942,53.535,53.747,89.823,39.189l289.493-116.143c18.867-7.57,32.505-22.331,39.115-39.624
	C1400.875,2086.96,1389.956,2096.767,1376.001,2102.365z"/>
<path style="fill:#D1976A;" d="M417.834,147.832c-32.657,18.135-43.894,45.423-32.039,74.97c0,0,35.299,87.821,82.075,204.083l0,0
	l123.837-49.682c-45.316-116.914-78.824-205.387-78.824-205.387c-9.424-23.49-28.103-37.069-53.773-35.914
	c-6.621,0.298-13.683,1.524-21.199,3.875C432.732,141.391,422.544,145.214,417.834,147.832z"/>
<path style="fill:#D1976A;" d="M1411.915,2013.417L932.09,944.094c-14.61-32.56-50.273-40.588-85.437-34.496
	c-0.528,0.092-1.09,0.199-1.638,0.298c-0.012,0.003-0.025,0.005-0.037,0.007l0.005-0.004l0.079-0.062
	c-27.752,4.115-41.73-15.375-45.345-23.065c-4.083-8.692-8.476-18.321-13.189-28.747l-125.605,50.392
	c3.799,9.469,7.289,18.333,10.538,26.433c4.909,12.401,12.278,31.099-15.891,51.009l0.026-0.002c-0.372,0.28-0.766,0.566-1.118,0.84
	c-28.189,21.887-49.851,50.351-37.906,83.981l392.277,1104.446c12.645,35.6,52.369,53.531,87.431,39.463l279.721-112.222
	c13.954-5.598,24.874-15.406,32.068-27.314C1418.952,2057.037,1421.226,2034.167,1411.915,2013.417z"/>
<path style="fill:#D1976A;" d="M496.796,498.986l7.231,18.025c40.994-16.446,81.987-32.893,122.981-49.339
	c-2.369-6.069-4.737-12.138-7.06-18.094C578.897,466.046,537.847,482.516,496.796,498.986z"/>
<path style="fill:#D1976A;" d="M478.717,453.923L478.717,453.923l7.231,18.025l123.38-49.499c-2.368-6.069-4.737-12.139-7.06-18.094
	C561.085,420.877,519.901,437.4,478.717,453.923z"/>
<path style="fill:#D1976A;" d="M533.011,589.088l22.358,55.729l0,0l122.297-49.064c-7.438-18.539-14.841-37.157-22.187-55.798
	C614.656,556.332,573.833,572.71,533.011,589.088z"/>
<path style="fill:#D1976A;" d="M514.875,544.048c2.46,5.966,4.863,11.955,7.289,18.002l122.582-49.179
	c-2.346-6.013-4.714-12.082-7.061-18.094L514.875,544.048z"/>
<path style="fill:#58453F;" d="M522.163,562.05L522.163,562.05c0.853,4.036,2.169,8.806,4.249,13.992
	c2.08,5.184,4.425,9.54,6.598,13.046l0,0c40.822-16.378,81.645-32.756,122.467-49.133c-0.873-3.968-2.157-8.536-4.077-13.468
	c-2.086-5.357-4.441-9.904-6.656-13.616L522.163,562.05z"/>
<path style="fill:#58453F;" d="M504.027,517.01L504.027,517.01c0.899,4.085,2.254,8.866,4.338,14.047
	c2.058,5.114,4.356,9.451,6.509,12.991l0,0l122.81-49.271c-0.916-4.036-2.239-8.654-4.178-13.631
	c-2.045-5.25-4.331-9.75-6.498-13.476C586.015,484.118,545.021,500.564,504.027,517.01z"/>
<path style="fill:#58453F;" d="M485.948,471.948L485.948,471.948c0.711,3.92,1.914,8.718,4.014,13.974
	c2.134,5.34,4.614,9.703,6.833,13.063l0,0h0c41.051-16.47,82.101-32.939,123.152-49.408c-0.644-3.893-1.776-8.697-3.828-13.974
	c-2.103-5.409-4.586-9.804-6.792-13.155L485.948,471.948z"/>
<path style="fill:#58453F;" d="M467.87,426.885c0.807,3.707,1.976,7.912,3.688,12.426c2.206,5.814,4.766,10.694,7.159,14.611l0,0
	c41.183-16.523,82.368-33.046,123.551-49.568c-0.58-3.84-1.649-8.643-3.687-13.939c-2.116-5.496-4.654-9.912-6.875-13.213
	L467.87,426.885z"/>
<path style="fill:#58453F;" d="M555.369,644.817c16.906,47.709,35.496,96.903,55.961,147.359
	c16.295,40.174,32.876,78.926,49.594,116.241l125.605-50.392c-15.297-38.685-31.073-77.74-47.344-117.144
	c-20.358-49.306-40.883-97.684-61.52-145.129L555.369,644.817z"/>
<path style="fill:#B07948;" d="M1025.328,2185.132c0,0,29.121,34.345,69.785,18.031c40.663-16.314,275.493-110.526,275.493-110.526
	s36.804-11.224,34.923-60.038l-222.439-6.356L1025.328,2185.132z"/>
<path style="fill:#E1B18A;" d="M884.507,1282.005l-0.001-0.001l290.652,724.47l221.815,4.8c0,0-345.184-772.659-469.926-1041.268
	c-7.362-15.852-14.531-41.378-52.768-46.888c-14.848-2.139-33.717-0.592-56.633,3.661L884.507,1282.005z"/>
<path style="fill:#B07948;" d="M817.646,926.778l-0.798-4.236c-19.815,4.279-42.95,10.793-67.953,20.805
	c-0.073,0.029-0.147,0.061-0.22,0.09c-2.543,1.02-5.086,2.037-7.667,3.132c-21.638,9.177-40.332,19.24-56.044,28.884
	l199.542,306.552l0.001,0.001L817.646,926.778z"/>
</svg>
